<svg viewBox="0 0 57 57" version="1.1" xmlns="http://www.w3.org/2000/svg" fill="black"><rect x="2" y="2" width="3" height="3"/><rect x="0.5" y="0.5" width="6" height="6" fill="transparent" stroke="black"/><rect x="52" y="2" width="3" height="3"/><rect x="50.5" y="0.5" width="6" height="6" fill="transparent" stroke="black"/><rect x="2" y="52" width="3" height="3"/><rect x="0.5" y="50.5" width="6" height="6" fill="transparent" stroke="black"/><rect x="9" y="0" width="2" height="1"/><rect x="13" y="0" width="1" height="1"/><rect x="17" y="0" width="4" height="1"/><rect x="23" y="0" width="4" height="1"/><rect x="28" y="0" width="8" height="1"/><rect x="38" y="0" width="6" height="1"/><rect x="46" y="0" width="2" height="1"/><rect x="10" y="1" width="1" height="1"/><rect x="14" y="1" width="1" height="1"/><rect x="17" y="1" width="2" height="1"/><rect x="20" y="1" width="1" height="1"/><rect x="24" y="1" width="3" height="1"/><rect x="28" y="1" width="1" height="1"/><rect x="30" y="1" width="1" height="1"/><rect x="33" y="1" width="1" height="1"/><rect x="36" y="1" width="3" height="1"/><rect x="41" y="1" width="2" height="1"/><rect x="47" y="1" width="1" height="1"/><rect x="12" y="2" width="1" height="1"/><rect x="18" y="2" width="1" height="1"/><rect x="20" y="2" width="2" height="1"/><rect x="23" y="2" width="2" height="1"/><rect x="29" y="2" width="1" height="1"/><rect x="31" y="2" width="2" height="1"/><rect x="34" y="2" width="2" height="1"/><rect x="37" y="2" width="1" height="1"/><rect x="42" y="2" width="1" height="1"/><rect x="44" y="2" width="1" height="1"/><rect x="46" y="2" width="2" height="1"/><rect x="9" y="3" width="1" height="1"/><rect x="13" y="3" width="1" height="1"/><rect x="15" y="3" width="1" height="1"/><rect x="17" y="3" width="1" height="1"/><rect x="19" y="3" width="2" height="1"/><rect x="24" y="3" width="1" height="1"/><rect x="31" y="3" width="1" height="1"/><rect x="33" y="3" width="3" height="1"/><rect x="37" y="3" width="3" height="1"/><rect x="42" y="3" width="1" height="1"/><rect x="45" y="3" width="1" height="1"/><rect x="47" y="3" width="1" height="1"/><rect x="9" y="4" width="1" height="1"/><rect x="13" y="4" width="1" height="1"/><rect x="15" y="4" width="2" height="1"/><rect x="19" y="4" width="1" height="1"/><rect x="21" y="4" width="1" height="1"/><rect x="23" y="4" width="11" height="1"/><rect x="35" y="4" width="2" height="1"/><rect x="38" y="4" width="1" height="1"/><rect x="40" y="4" width="4" height="1"/><rect x="45" y="4" width="1" height="1"/><rect x="47" y="4" width="1" height="1"/><rect x="8" y="5" width="1" height="1"/><rect x="12" y="5" width="1" height="1"/><rect x="14" y="5" width="1" height="1"/><rect x="17" y="5" width="1" height="1"/><rect x="19" y="5" width="1" height="1"/><rect x="22" y="5" width="5" height="1"/><rect x="30" y="5" width="1" height="1"/><rect x="32" y="5" width="1" height="1"/><rect x="34" y="5" width="1" height="1"/><rect x="37" y="5" width="1" height="1"/><rect x="39" y="5" width="1" height="1"/><rect x="43" y="5" width="4" height="1"/><rect x="8" y="6" width="1" height="1"/><rect x="10" y="6" width="1" height="1"/><rect x="12" y="6" width="1" height="1"/><rect x="14" y="6" width="1" height="1"/><rect x="16" y="6" width="1" height="1"/><rect x="18" y="6" width="1" height="1"/><rect x="20" y="6" width="1" height="1"/><rect x="22" y="6" width="1" height="1"/><rect x="24" y="6" width="1" height="1"/><rect x="26" y="6" width="1" height="1"/><rect x="28" y="6" width="1" height="1"/><rect x="30" y="6" width="1" height="1"/><rect x="32" y="6" width="1" height="1"/><rect x="34" y="6" width="1" height="1"/><rect x="36" y="6" width="1" height="1"/><rect x="38" y="6" width="1" height="1"/><rect x="40" y="6" width="1" height="1"/><rect x="42" y="6" width="1" height="1"/><rect x="44" y="6" width="1" height="1"/><rect x="46" y="6" width="1" height="1"/><rect x="48" y="6" width="1" height="1"/><rect x="14" y="7" width="1" height="1"/><rect x="16" y="7" width="1" height="1"/><rect x="19" y="7" width="1" height="1"/><rect x="21" y="7" width="1" height="1"/><rect x="23" y="7" width="1" height="1"/><rect x="25" y="7" width="2" height="1"/><rect x="30" y="7" width="1" height="1"/><rect x="32" y="7" width="5" height="1"/><rect x="38" y="7" width="2" height="1"/><rect x="41" y="7" width="3" height="1"/><rect x="47" y="7" width="1" height="1"/><rect x="0" y="8" width="1" height="1"/><rect x="3" y="8" width="1" height="1"/><rect x="5" y="8" width="2" height="1"/><rect x="8" y="8" width="2" height="1"/><rect x="14" y="8" width="1" height="1"/><rect x="19" y="8" width="3" height="1"/><rect x="23" y="8" width="1" height="1"/><rect x="26" y="8" width="6" height="1"/><rect x="33" y="8" width="1" height="1"/><rect x="36" y="8" width="2" height="1"/><rect x="39" y="8" width="2" height="1"/><rect x="42" y="8" width="2" height="1"/><rect x="45" y="8" width="1" height="1"/><rect x="47" y="8" width="1" height="1"/><rect x="49" y="8" width="1" height="1"/><rect x="51" y="8" width="1" height="1"/><rect x="0" y="9" width="2" height="1"/><rect x="3" y="9" width="2" height="1"/><rect x="7" y="9" width="6" height="1"/><rect x="16" y="9" width="1" height="1"/><rect x="19" y="9" width="3" height="1"/><rect x="25" y="9" width="1" height="1"/><rect x="32" y="9" width="1" height="1"/><rect x="36" y="9" width="2" height="1"/><rect x="39" y="9" width="1" height="1"/><rect x="43" y="9" width="1" height="1"/><rect x="45" y="9" width="1" height="1"/><rect x="51" y="9" width="3" height="1"/><rect x="56" y="9" width="1" height="1"/><rect x="1" y="10" width="1" height="1"/><rect x="3" y="10" width="1" height="1"/><rect x="6" y="10" width="1" height="1"/><rect x="8" y="10" width="1" height="1"/><rect x="10" y="10" width="1" height="1"/><rect x="12" y="10" width="3" height="1"/><rect x="16" y="10" width="3" height="1"/><rect x="25" y="10" width="1" height="1"/><rect x="28" y="10" width="1" height="1"/><rect x="33" y="10" width="3" height="1"/><rect x="39" y="10" width="2" height="1"/><rect x="43" y="10" width="1" height="1"/><rect x="46" y="10" width="1" height="1"/><rect x="49" y="10" width="2" height="1"/><rect x="55" y="10" width="2" height="1"/><rect x="0" y="11" width="4" height="1"/><rect x="8" y="11" width="1" height="1"/><rect x="11" y="11" width="1" height="1"/><rect x="13" y="11" width="3" height="1"/><rect x="18" y="11" width="2" height="1"/><rect x="23" y="11" width="1" height="1"/><rect x="25" y="11" width="2" height="1"/><rect x="28" y="11" width="1" height="1"/><rect x="34" y="11" width="5" height="1"/><rect x="40" y="11" width="4" height="1"/><rect x="50" y="11" width="4" height="1"/><rect x="56" y="11" width="1" height="1"/><rect x="0" y="12" width="4" height="1"/><rect x="6" y="12" width="4" height="1"/><rect x="11" y="12" width="1" height="1"/><rect x="14" y="12" width="1" height="1"/><rect x="16" y="12" width="3" height="1"/><rect x="22" y="12" width="3" height="1"/><rect x="28" y="12" width="1" height="1"/><rect x="32" y="12" width="1" height="1"/><rect x="35" y="12" width="4" height="1"/><rect x="40" y="12" width="2" height="1"/><rect x="43" y="12" width="4" height="1"/><rect x="49" y="12" width="4" height="1"/><rect x="56" y="12" width="1" height="1"/><rect x="1" y="13" width="1" height="1"/><rect x="3" y="13" width="1" height="1"/><rect x="13" y="13" width="2" height="1"/><rect x="16" y="13" width="2" height="1"/><rect x="20" y="13" width="1" height="1"/><rect x="22" y="13" width="2" height="1"/><rect x="28" y="13" width="2" height="1"/><rect x="31" y="13" width="1" height="1"/><rect x="33" y="13" width="3" height="1"/><rect x="37" y="13" width="1" height="1"/><rect x="40" y="13" width="1" height="1"/><rect x="45" y="13" width="2" height="1"/><rect x="49" y="13" width="1" height="1"/><rect x="51" y="13" width="1" height="1"/><rect x="55" y="13" width="2" height="1"/><rect x="3" y="14" width="2" height="1"/><rect x="6" y="14" width="1" height="1"/><rect x="8" y="14" width="1" height="1"/><rect x="10" y="14" width="2" height="1"/><rect x="14" y="14" width="2" height="1"/><rect x="18" y="14" width="2" height="1"/><rect x="24" y="14" width="2" height="1"/><rect x="31" y="14" width="1" height="1"/><rect x="33" y="14" width="1" height="1"/><rect x="35" y="14" width="5" height="1"/><rect x="43" y="14" width="1" height="1"/><rect x="45" y="14" width="1" height="1"/><rect x="49" y="14" width="1" height="1"/><rect x="51" y="14" width="2" height="1"/><rect x="54" y="14" width="2" height="1"/><rect x="1" y="15" width="3" height="1"/><rect x="7" y="15" width="1" height="1"/><rect x="11" y="15" width="1" height="1"/><rect x="13" y="15" width="2" height="1"/><rect x="16" y="15" width="4" height="1"/><rect x="23" y="15" width="1" height="1"/><rect x="25" y="15" width="1" height="1"/><rect x="28" y="15" width="1" height="1"/><rect x="31" y="15" width="2" height="1"/><rect x="36" y="15" width="1" height="1"/><rect x="40" y="15" width="1" height="1"/><rect x="42" y="15" width="1" height="1"/><rect x="44" y="15" width="1" height="1"/><rect x="46" y="15" width="1" height="1"/><rect x="48" y="15" width="2" height="1"/><rect x="51" y="15" width="3" height="1"/><rect x="56" y="15" width="1" height="1"/><rect x="5" y="16" width="2" height="1"/><rect x="9" y="16" width="1" height="1"/><rect x="13" y="16" width="3" height="1"/><rect x="18" y="16" width="1" height="1"/><rect x="23" y="16" width="4" height="1"/><rect x="30" y="16" width="1" height="1"/><rect x="32" y="16" width="1" height="1"/><rect x="34" y="16" width="1" height="1"/><rect x="36" y="16" width="1" height="1"/><rect x="38" y="16" width="2" height="1"/><rect x="41" y="16" width="1" height="1"/><rect x="43" y="16" width="2" height="1"/><rect x="51" y="16" width="1" height="1"/><rect x="53" y="16" width="1" height="1"/><rect x="2" y="17" width="1" height="1"/><rect x="5" y="17" width="1" height="1"/><rect x="10" y="17" width="1" height="1"/><rect x="13" y="17" width="1" height="1"/><rect x="18" y="17" width="1" height="1"/><rect x="20" y="17" width="1" height="1"/><rect x="23" y="17" width="1" height="1"/><rect x="26" y="17" width="4" height="1"/><rect x="36" y="17" width="3" height="1"/><rect x="40" y="17" width="2" height="1"/><rect x="44" y="17" width="1" height="1"/><rect x="47" y="17" width="1" height="1"/><rect x="50" y="17" width="1" height="1"/><rect x="52" y="17" width="2" height="1"/><rect x="3" y="18" width="5" height="1"/><rect x="10" y="18" width="1" height="1"/><rect x="12" y="18" width="1" height="1"/><rect x="17" y="18" width="4" height="1"/><rect x="22" y="18" width="1" height="1"/><rect x="26" y="18" width="1" height="1"/><rect x="28" y="18" width="1" height="1"/><rect x="32" y="18" width="2" height="1"/><rect x="36" y="18" width="2" height="1"/><rect x="39" y="18" width="1" height="1"/><rect x="43" y="18" width="2" height="1"/><rect x="52" y="18" width="1" height="1"/><rect x="54" y="18" width="3" height="1"/><rect x="1" y="19" width="3" height="1"/><rect x="10" y="19" width="1" height="1"/><rect x="13" y="19" width="1" height="1"/><rect x="19" y="19" width="1" height="1"/><rect x="21" y="19" width="2" height="1"/><rect x="27" y="19" width="2" height="1"/><rect x="32" y="19" width="1" height="1"/><rect x="34" y="19" width="1" height="1"/><rect x="41" y="19" width="1" height="1"/><rect x="43" y="19" width="2" height="1"/><rect x="47" y="19" width="1" height="1"/><rect x="49" y="19" width="1" height="1"/><rect x="51" y="19" width="1" height="1"/><rect x="0" y="20" width="1" height="1"/><rect x="3" y="20" width="4" height="1"/><rect x="8" y="20" width="4" height="1"/><rect x="13" y="20" width="3" height="1"/><rect x="17" y="20" width="1" height="1"/><rect x="19" y="20" width="3" height="1"/><rect x="23" y="20" width="1" height="1"/><rect x="25" y="20" width="4" height="1"/><rect x="30" y="20" width="2" height="1"/><rect x="36" y="20" width="2" height="1"/><rect x="40" y="20" width="1" height="1"/><rect x="43" y="20" width="1" height="1"/><rect x="46" y="20" width="2" height="1"/><rect x="50" y="20" width="3" height="1"/><rect x="55" y="20" width="1" height="1"/><rect x="1" y="21" width="1" height="1"/><rect x="3" y="21" width="2" height="1"/><rect x="8" y="21" width="2" height="1"/><rect x="12" y="21" width="2" height="1"/><rect x="16" y="21" width="3" height="1"/><rect x="20" y="21" width="2" height="1"/><rect x="25" y="21" width="2" height="1"/><rect x="28" y="21" width="1" height="1"/><rect x="31" y="21" width="2" height="1"/><rect x="35" y="21" width="1" height="1"/><rect x="37" y="21" width="1" height="1"/><rect x="43" y="21" width="2" height="1"/><rect x="47" y="21" width="1" height="1"/><rect x="49" y="21" width="1" height="1"/><rect x="52" y="21" width="2" height="1"/><rect x="55" y="21" width="2" height="1"/><rect x="0" y="22" width="2" height="1"/><rect x="3" y="22" width="1" height="1"/><rect x="5" y="22" width="4" height="1"/><rect x="10" y="22" width="4" height="1"/><rect x="16" y="22" width="1" height="1"/><rect x="18" y="22" width="2" height="1"/><rect x="21" y="22" width="1" height="1"/><rect x="23" y="22" width="1" height="1"/><rect x="26" y="22" width="1" height="1"/><rect x="32" y="22" width="3" height="1"/><rect x="37" y="22" width="1" height="1"/><rect x="39" y="22" width="1" height="1"/><rect x="44" y="22" width="1" height="1"/><rect x="46" y="22" width="1" height="1"/><rect x="51" y="22" width="3" height="1"/><rect x="55" y="22" width="2" height="1"/><rect x="0" y="23" width="2" height="1"/><rect x="5" y="23" width="1" height="1"/><rect x="8" y="23" width="2" height="1"/><rect x="12" y="23" width="1" height="1"/><rect x="16" y="23" width="2" height="1"/><rect x="21" y="23" width="2" height="1"/><rect x="26" y="23" width="1" height="1"/><rect x="28" y="23" width="1" height="1"/><rect x="33" y="23" width="1" height="1"/><rect x="35" y="23" width="2" height="1"/><rect x="38" y="23" width="1" height="1"/><rect x="40" y="23" width="1" height="1"/><rect x="48" y="23" width="6" height="1"/><rect x="55" y="23" width="1" height="1"/><rect x="0" y="24" width="1" height="1"/><rect x="2" y="24" width="1" height="1"/><rect x="4" y="24" width="4" height="1"/><rect x="9" y="24" width="1" height="1"/><rect x="11" y="24" width="6" height="1"/><rect x="18" y="24" width="1" height="1"/><rect x="21" y="24" width="2" height="1"/><rect x="25" y="24" width="1" height="1"/><rect x="27" y="24" width="2" height="1"/><rect x="30" y="24" width="1" height="1"/><rect x="32" y="24" width="3" height="1"/><rect x="36" y="24" width="3" height="1"/><rect x="40" y="24" width="1" height="1"/><rect x="43" y="24" width="2" height="1"/><rect x="47" y="24" width="1" height="1"/><rect x="51" y="24" width="3" height="1"/><rect x="55" y="24" width="1" height="1"/><rect x="3" y="25" width="1" height="1"/><rect x="8" y="25" width="1" height="1"/><rect x="11" y="25" width="1" height="1"/><rect x="13" y="25" width="1" height="1"/><rect x="19" y="25" width="2" height="1"/><rect x="22" y="25" width="1" height="1"/><rect x="25" y="25" width="1" height="1"/><rect x="34" y="25" width="2" height="1"/><rect x="37" y="25" width="1" height="1"/><rect x="39" y="25" width="1" height="1"/><rect x="41" y="25" width="1" height="1"/><rect x="43" y="25" width="2" height="1"/><rect x="46" y="25" width="2" height="1"/><rect x="49" y="25" width="1" height="1"/><rect x="51" y="25" width="3" height="1"/><rect x="55" y="25" width="2" height="1"/><rect x="3" y="26" width="7" height="1"/><rect x="11" y="26" width="1" height="1"/><rect x="14" y="26" width="2" height="1"/><rect x="17" y="26" width="1" height="1"/><rect x="21" y="26" width="1" height="1"/><rect x="24" y="26" width="1" height="1"/><rect x="26" y="26" width="5" height="1"/><rect x="32" y="26" width="2" height="1"/><rect x="35" y="26" width="4" height="1"/><rect x="40" y="26" width="2" height="1"/><rect x="45" y="26" width="1" height="1"/><rect x="48" y="26" width="5" height="1"/><rect x="54" y="26" width="2" height="1"/><rect x="0" y="27" width="2" height="1"/><rect x="3" y="27" width="2" height="1"/><rect x="8" y="27" width="4" height="1"/><rect x="13" y="27" width="2" height="1"/><rect x="16" y="27" width="1" height="1"/><rect x="19" y="27" width="1" height="1"/><rect x="21" y="27" width="1" height="1"/><rect x="24" y="27" width="1" height="1"/><rect x="26" y="27" width="1" height="1"/><rect x="30" y="27" width="3" height="1"/><rect x="35" y="27" width="6" height="1"/><rect x="42" y="27" width="3" height="1"/><rect x="46" y="27" width="3" height="1"/><rect x="52" y="27" width="1" height="1"/><rect x="55" y="27" width="2" height="1"/><rect x="1" y="28" width="2" height="1"/><rect x="4" y="28" width="1" height="1"/><rect x="6" y="28" width="1" height="1"/><rect x="8" y="28" width="1" height="1"/><rect x="10" y="28" width="2" height="1"/><rect x="14" y="28" width="1" height="1"/><rect x="16" y="28" width="3" height="1"/><rect x="21" y="28" width="1" height="1"/><rect x="23" y="28" width="1" height="1"/><rect x="25" y="28" width="2" height="1"/><rect x="28" y="28" width="1" height="1"/><rect x="30" y="28" width="1" height="1"/><rect x="32" y="28" width="2" height="1"/><rect x="35" y="28" width="2" height="1"/><rect x="38" y="28" width="2" height="1"/><rect x="41" y="28" width="1" height="1"/><rect x="44" y="28" width="5" height="1"/><rect x="50" y="28" width="1" height="1"/><rect x="52" y="28" width="1" height="1"/><rect x="55" y="28" width="2" height="1"/><rect x="0" y="29" width="3" height="1"/><rect x="4" y="29" width="1" height="1"/><rect x="8" y="29" width="3" height="1"/><rect x="12" y="29" width="1" height="1"/><rect x="14" y="29" width="4" height="1"/><rect x="20" y="29" width="3" height="1"/><rect x="25" y="29" width="2" height="1"/><rect x="30" y="29" width="1" height="1"/><rect x="35" y="29" width="1" height="1"/><rect x="37" y="29" width="5" height="1"/><rect x="47" y="29" width="2" height="1"/><rect x="52" y="29" width="2" height="1"/><rect x="0" y="30" width="3" height="1"/><rect x="4" y="30" width="7" height="1"/><rect x="12" y="30" width="2" height="1"/><rect x="15" y="30" width="1" height="1"/><rect x="17" y="30" width="1" height="1"/><rect x="19" y="30" width="3" height="1"/><rect x="24" y="30" width="7" height="1"/><rect x="32" y="30" width="1" height="1"/><rect x="37" y="30" width="1" height="1"/><rect x="40" y="30" width="1" height="1"/><rect x="44" y="30" width="1" height="1"/><rect x="47" y="30" width="8" height="1"/><rect x="56" y="30" width="1" height="1"/><rect x="4" y="31" width="1" height="1"/><rect x="8" y="31" width="1" height="1"/><rect x="10" y="31" width="1" height="1"/><rect x="12" y="31" width="1" height="1"/><rect x="15" y="31" width="1" height="1"/><rect x="17" y="31" width="2" height="1"/><rect x="22" y="31" width="1" height="1"/><rect x="26" y="31" width="1" height="1"/><rect x="30" y="31" width="1" height="1"/><rect x="32" y="31" width="1" height="1"/><rect x="36" y="31" width="2" height="1"/><rect x="43" y="31" width="2" height="1"/><rect x="46" y="31" width="1" height="1"/><rect x="50" y="31" width="3" height="1"/><rect x="55" y="31" width="1" height="1"/><rect x="0" y="32" width="7" height="1"/><rect x="8" y="32" width="1" height="1"/><rect x="10" y="32" width="1" height="1"/><rect x="12" y="32" width="7" height="1"/><rect x="22" y="32" width="3" height="1"/><rect x="26" y="32" width="1" height="1"/><rect x="33" y="32" width="2" height="1"/><rect x="36" y="32" width="2" height="1"/><rect x="40" y="32" width="4" height="1"/><rect x="46" y="32" width="3" height="1"/><rect x="51" y="32" width="1" height="1"/><rect x="53" y="32" width="1" height="1"/><rect x="1" y="33" width="1" height="1"/><rect x="3" y="33" width="2" height="1"/><rect x="9" y="33" width="4" height="1"/><rect x="16" y="33" width="1" height="1"/><rect x="18" y="33" width="1" height="1"/><rect x="21" y="33" width="2" height="1"/><rect x="24" y="33" width="3" height="1"/><rect x="30" y="33" width="1" height="1"/><rect x="35" y="33" width="1" height="1"/><rect x="45" y="33" width="1" height="1"/><rect x="50" y="33" width="2" height="1"/><rect x="53" y="33" width="1" height="1"/><rect x="55" y="33" width="1" height="1"/><rect x="1" y="34" width="3" height="1"/><rect x="5" y="34" width="2" height="1"/><rect x="10" y="34" width="3" height="1"/><rect x="14" y="34" width="1" height="1"/><rect x="16" y="34" width="1" height="1"/><rect x="20" y="34" width="3" height="1"/><rect x="26" y="34" width="5" height="1"/><rect x="33" y="34" width="5" height="1"/><rect x="39" y="34" width="1" height="1"/><rect x="41" y="34" width="1" height="1"/><rect x="43" y="34" width="4" height="1"/><rect x="49" y="34" width="3" height="1"/><rect x="1" y="35" width="1" height="1"/><rect x="3" y="35" width="3" height="1"/><rect x="8" y="35" width="1" height="1"/><rect x="13" y="35" width="1" height="1"/><rect x="20" y="35" width="1" height="1"/><rect x="22" y="35" width="3" height="1"/><rect x="28" y="35" width="1" height="1"/><rect x="30" y="35" width="1" height="1"/><rect x="35" y="35" width="4" height="1"/><rect x="40" y="35" width="1" height="1"/><rect x="43" y="35" width="1" height="1"/><rect x="46" y="35" width="1" height="1"/><rect x="48" y="35" width="2" height="1"/><rect x="55" y="35" width="2" height="1"/><rect x="2" y="36" width="5" height="1"/><rect x="9" y="36" width="3" height="1"/><rect x="13" y="36" width="3" height="1"/><rect x="17" y="36" width="1" height="1"/><rect x="25" y="36" width="1" height="1"/><rect x="27" y="36" width="1" height="1"/><rect x="30" y="36" width="3" height="1"/><rect x="36" y="36" width="2" height="1"/><rect x="40" y="36" width="3" height="1"/><rect x="44" y="36" width="2" height="1"/><rect x="48" y="36" width="2" height="1"/><rect x="53" y="36" width="1" height="1"/><rect x="56" y="36" width="1" height="1"/><rect x="0" y="37" width="2" height="1"/><rect x="7" y="37" width="2" height="1"/><rect x="12" y="37" width="2" height="1"/><rect x="17" y="37" width="1" height="1"/><rect x="19" y="37" width="3" height="1"/><rect x="23" y="37" width="1" height="1"/><rect x="25" y="37" width="1" height="1"/><rect x="27" y="37" width="4" height="1"/><rect x="32" y="37" width="1" height="1"/><rect x="34" y="37" width="1" height="1"/><rect x="37" y="37" width="1" height="1"/><rect x="39" y="37" width="2" height="1"/><rect x="43" y="37" width="1" height="1"/><rect x="46" y="37" width="2" height="1"/><rect x="49" y="37" width="8" height="1"/><rect x="0" y="38" width="5" height="1"/><rect x="6" y="38" width="3" height="1"/><rect x="10" y="38" width="6" height="1"/><rect x="20" y="38" width="5" height="1"/><rect x="26" y="38" width="1" height="1"/><rect x="28" y="38" width="3" height="1"/><rect x="36" y="38" width="1" height="1"/><rect x="40" y="38" width="1" height="1"/><rect x="43" y="38" width="2" height="1"/><rect x="47" y="38" width="3" height="1"/><rect x="52" y="38" width="1" height="1"/><rect x="54" y="38" width="2" height="1"/><rect x="0" y="39" width="1" height="1"/><rect x="5" y="39" width="1" height="1"/><rect x="10" y="39" width="3" height="1"/><rect x="18" y="39" width="5" height="1"/><rect x="29" y="39" width="5" height="1"/><rect x="35" y="39" width="2" height="1"/><rect x="39" y="39" width="2" height="1"/><rect x="43" y="39" width="2" height="1"/><rect x="46" y="39" width="1" height="1"/><rect x="48" y="39" width="1" height="1"/><rect x="56" y="39" width="1" height="1"/><rect x="0" y="40" width="1" height="1"/><rect x="3" y="40" width="1" height="1"/><rect x="5" y="40" width="3" height="1"/><rect x="9" y="40" width="1" height="1"/><rect x="14" y="40" width="1" height="1"/><rect x="17" y="40" width="3" height="1"/><rect x="23" y="40" width="1" height="1"/><rect x="25" y="40" width="1" height="1"/><rect x="27" y="40" width="6" height="1"/><rect x="34" y="40" width="4" height="1"/><rect x="39" y="40" width="1" height="1"/><rect x="41" y="40" width="6" height="1"/><rect x="49" y="40" width="2" height="1"/><rect x="52" y="40" width="2" height="1"/><rect x="4" y="41" width="2" height="1"/><rect x="7" y="41" width="1" height="1"/><rect x="12" y="41" width="1" height="1"/><rect x="19" y="41" width="1" height="1"/><rect x="22" y="41" width="2" height="1"/><rect x="25" y="41" width="1" height="1"/><rect x="27" y="41" width="1" height="1"/><rect x="29" y="41" width="1" height="1"/><rect x="31" y="41" width="1" height="1"/><rect x="35" y="41" width="2" height="1"/><rect x="38" y="41" width="2" height="1"/><rect x="41" y="41" width="1" height="1"/><rect x="47" y="41" width="1" height="1"/><rect x="50" y="41" width="1" height="1"/><rect x="55" y="41" width="1" height="1"/><rect x="0" y="42" width="1" height="1"/><rect x="6" y="42" width="1" height="1"/><rect x="8" y="42" width="2" height="1"/><rect x="11" y="42" width="1" height="1"/><rect x="13" y="42" width="3" height="1"/><rect x="17" y="42" width="3" height="1"/><rect x="22" y="42" width="1" height="1"/><rect x="25" y="42" width="1" height="1"/><rect x="27" y="42" width="2" height="1"/><rect x="30" y="42" width="1" height="1"/><rect x="32" y="42" width="1" height="1"/><rect x="36" y="42" width="1" height="1"/><rect x="40" y="42" width="1" height="1"/><rect x="44" y="42" width="1" height="1"/><rect x="49" y="42" width="5" height="1"/><rect x="55" y="42" width="2" height="1"/><rect x="0" y="43" width="3" height="1"/><rect x="5" y="43" width="1" height="1"/><rect x="9" y="43" width="1" height="1"/><rect x="11" y="43" width="1" height="1"/><rect x="13" y="43" width="4" height="1"/><rect x="20" y="43" width="1" height="1"/><rect x="23" y="43" width="1" height="1"/><rect x="26" y="43" width="1" height="1"/><rect x="28" y="43" width="7" height="1"/><rect x="36" y="43" width="1" height="1"/><rect x="44" y="43" width="1" height="1"/><rect x="46" y="43" width="1" height="1"/><rect x="50" y="43" width="3" height="1"/><rect x="55" y="43" width="1" height="1"/><rect x="6" y="44" width="1" height="1"/><rect x="10" y="44" width="3" height="1"/><rect x="14" y="44" width="1" height="1"/><rect x="21" y="44" width="1" height="1"/><rect x="27" y="44" width="1" height="1"/><rect x="29" y="44" width="2" height="1"/><rect x="35" y="44" width="2" height="1"/><rect x="38" y="44" width="1" height="1"/><rect x="40" y="44" width="1" height="1"/><rect x="42" y="44" width="2" height="1"/><rect x="46" y="44" width="3" height="1"/><rect x="53" y="44" width="1" height="1"/><rect x="2" y="45" width="1" height="1"/><rect x="5" y="45" width="1" height="1"/><rect x="7" y="45" width="1" height="1"/><rect x="9" y="45" width="2" height="1"/><rect x="13" y="45" width="1" height="1"/><rect x="15" y="45" width="1" height="1"/><rect x="20" y="45" width="4" height="1"/><rect x="25" y="45" width="1" height="1"/><rect x="27" y="45" width="1" height="1"/><rect x="35" y="45" width="1" height="1"/><rect x="41" y="45" width="1" height="1"/><rect x="47" y="45" width="4" height="1"/><rect x="53" y="45" width="1" height="1"/><rect x="56" y="45" width="1" height="1"/><rect x="0" y="46" width="1" height="1"/><rect x="2" y="46" width="1" height="1"/><rect x="5" y="46" width="3" height="1"/><rect x="9" y="46" width="1" height="1"/><rect x="11" y="46" width="1" height="1"/><rect x="15" y="46" width="3" height="1"/><rect x="19" y="46" width="1" height="1"/><rect x="21" y="46" width="4" height="1"/><rect x="27" y="46" width="1" height="1"/><rect x="29" y="46" width="2" height="1"/><rect x="33" y="46" width="1" height="1"/><rect x="36" y="46" width="1" height="1"/><rect x="39" y="46" width="1" height="1"/><rect x="41" y="46" width="1" height="1"/><rect x="43" y="46" width="1" height="1"/><rect x="46" y="46" width="2" height="1"/><rect x="49" y="46" width="2" height="1"/><rect x="56" y="46" width="1" height="1"/><rect x="0" y="47" width="5" height="1"/><rect x="7" y="47" width="1" height="1"/><rect x="11" y="47" width="2" height="1"/><rect x="16" y="47" width="5" height="1"/><rect x="22" y="47" width="2" height="1"/><rect x="25" y="47" width="2" height="1"/><rect x="30" y="47" width="2" height="1"/><rect x="34" y="47" width="1" height="1"/><rect x="36" y="47" width="3" height="1"/><rect x="40" y="47" width="4" height="1"/><rect x="46" y="47" width="2" height="1"/><rect x="52" y="47" width="2" height="1"/><rect x="56" y="47" width="1" height="1"/><rect x="6" y="48" width="3" height="1"/><rect x="10" y="48" width="5" height="1"/><rect x="16" y="48" width="3" height="1"/><rect x="20" y="48" width="1" height="1"/><rect x="22" y="48" width="2" height="1"/><rect x="26" y="48" width="11" height="1"/><rect x="38" y="48" width="1" height="1"/><rect x="40" y="48" width="1" height="1"/><rect x="43" y="48" width="4" height="1"/><rect x="48" y="48" width="5" height="1"/><rect x="55" y="48" width="2" height="1"/><rect x="8" y="49" width="3" height="1"/><rect x="12" y="49" width="2" height="1"/><rect x="16" y="49" width="1" height="1"/><rect x="19" y="49" width="1" height="1"/><rect x="22" y="49" width="1" height="1"/><rect x="25" y="49" width="2" height="1"/><rect x="30" y="49" width="5" height="1"/><rect x="36" y="49" width="1" height="1"/><rect x="39" y="49" width="1" height="1"/><rect x="41" y="49" width="1" height="1"/><rect x="43" y="49" width="1" height="1"/><rect x="46" y="49" width="1" height="1"/><rect x="48" y="49" width="1" height="1"/><rect x="52" y="49" width="1" height="1"/><rect x="54" y="49" width="3" height="1"/><rect x="9" y="50" width="4" height="1"/><rect x="14" y="50" width="1" height="1"/><rect x="16" y="50" width="3" height="1"/><rect x="20" y="50" width="1" height="1"/><rect x="23" y="50" width="2" height="1"/><rect x="26" y="50" width="1" height="1"/><rect x="28" y="50" width="1" height="1"/><rect x="30" y="50" width="4" height="1"/><rect x="35" y="50" width="4" height="1"/><rect x="40" y="50" width="2" height="1"/><rect x="43" y="50" width="1" height="1"/><rect x="48" y="50" width="1" height="1"/><rect x="50" y="50" width="1" height="1"/><rect x="52" y="50" width="2" height="1"/><rect x="8" y="51" width="2" height="1"/><rect x="11" y="51" width="4" height="1"/><rect x="19" y="51" width="2" height="1"/><rect x="25" y="51" width="2" height="1"/><rect x="30" y="51" width="3" height="1"/><rect x="35" y="51" width="2" height="1"/><rect x="38" y="51" width="8" height="1"/><rect x="48" y="51" width="1" height="1"/><rect x="52" y="51" width="1" height="1"/><rect x="55" y="51" width="1" height="1"/><rect x="9" y="52" width="1" height="1"/><rect x="11" y="52" width="1" height="1"/><rect x="14" y="52" width="1" height="1"/><rect x="16" y="52" width="1" height="1"/><rect x="18" y="52" width="3" height="1"/><rect x="22" y="52" width="9" height="1"/><rect x="32" y="52" width="1" height="1"/><rect x="34" y="52" width="4" height="1"/><rect x="39" y="52" width="1" height="1"/><rect x="41" y="52" width="2" height="1"/><rect x="44" y="52" width="10" height="1"/><rect x="56" y="52" width="1" height="1"/><rect x="8" y="53" width="4" height="1"/><rect x="13" y="53" width="5" height="1"/><rect x="19" y="53" width="1" height="1"/><rect x="22" y="53" width="1" height="1"/><rect x="33" y="53" width="1" height="1"/><rect x="36" y="53" width="1" height="1"/><rect x="38" y="53" width="4" height="1"/><rect x="47" y="53" width="2" height="1"/><rect x="50" y="53" width="1" height="1"/><rect x="52" y="53" width="1" height="1"/><rect x="55" y="53" width="2" height="1"/><rect x="9" y="54" width="2" height="1"/><rect x="12" y="54" width="1" height="1"/><rect x="15" y="54" width="1" height="1"/><rect x="17" y="54" width="3" height="1"/><rect x="22" y="54" width="7" height="1"/><rect x="30" y="54" width="2" height="1"/><rect x="33" y="54" width="1" height="1"/><rect x="36" y="54" width="1" height="1"/><rect x="39" y="54" width="1" height="1"/><rect x="41" y="54" width="1" height="1"/><rect x="44" y="54" width="1" height="1"/><rect x="48" y="54" width="1" height="1"/><rect x="50" y="54" width="3" height="1"/><rect x="56" y="54" width="1" height="1"/><rect x="9" y="55" width="2" height="1"/><rect x="12" y="55" width="4" height="1"/><rect x="19" y="55" width="2" height="1"/><rect x="22" y="55" width="2" height="1"/><rect x="25" y="55" width="3" height="1"/><rect x="31" y="55" width="2" height="1"/><rect x="34" y="55" width="3" height="1"/><rect x="41" y="55" width="1" height="1"/><rect x="43" y="55" width="2" height="1"/><rect x="46" y="55" width="1" height="1"/><rect x="49" y="55" width="1" height="1"/><rect x="51" y="55" width="3" height="1"/><rect x="8" y="56" width="3" height="1"/><rect x="13" y="56" width="1" height="1"/><rect x="15" y="56" width="2" height="1"/><rect x="19" y="56" width="1" height="1"/><rect x="21" y="56" width="1" height="1"/><rect x="23" y="56" width="3" height="1"/><rect x="27" y="56" width="1" height="1"/><rect x="30" y="56" width="2" height="1"/><rect x="33" y="56" width="5" height="1"/><rect x="39" y="56" width="4" height="1"/><rect x="45" y="56" width="1" height="1"/><rect x="48" y="56" width="3" height="1"/><rect x="52" y="56" width="2" height="1"/><rect x="55" y="56" width="1" height="1"/></svg>